<svg width="1128" height="959" viewBox="0 0 1128 959" fill="none" xmlns="http://www.w3.org/2000/svg">
<g id="Group 57453297">
<path id="Union" fill-rule="evenodd" clip-rule="evenodd" d="M118.081 958.445L198.105 891.999H118.081H118.024H38L118.024 958.445V958.492L118.053 958.469L118.081 958.492V958.445Z" fill="#CFEBFF"/>
<path id="Subtract" fill-rule="evenodd" clip-rule="evenodd" d="M812.091 186.731C747.096 152.66 672.033 154.788 610.903 186.682L529.019 44.8554C536.728 41.415 548.181 36.5063 564.835 29.5185C641.22 -2.53203 726.001 -8.67475 806.208 12.0302C836.873 19.9464 865.954 31.6763 892.98 46.6257L812.091 186.731Z" fill="#293897"/>
<path id="Subtract_2" fill-rule="evenodd" clip-rule="evenodd" d="M812.091 565.835C747.096 599.906 672.033 597.779 610.903 565.884L529.019 707.711C536.728 711.151 548.181 716.06 564.835 723.048C641.22 755.098 726.001 761.241 806.208 740.536C836.873 732.62 865.954 720.89 892.98 705.941L812.091 565.835Z" fill="#CFEBFF"/>
<path id="Subtract_3" fill-rule="evenodd" clip-rule="evenodd" d="M596.249 194.418C534.246 233.67 498.557 299.74 495.613 368.627L331.846 368.627C332.721 360.231 334.196 347.858 336.472 329.941C346.907 247.765 383.978 171.271 442.013 112.163C464.201 89.5636 488.9 70.2439 515.36 54.3128L596.249 194.418Z" fill="#CFEBFF"/>
<path id="Subtract_4" fill-rule="evenodd" clip-rule="evenodd" d="M303.249 705.418C241.246 744.67 205.557 810.74 202.613 879.627L38.8458 879.627C39.7206 871.231 41.1963 858.858 43.4716 840.941C53.9072 758.765 90.9782 682.271 149.013 623.163C171.201 600.564 195.9 581.244 222.36 565.313L303.249 705.418Z" fill="#CFEBFF"/>
<path id="Subtract_5" fill-rule="evenodd" clip-rule="evenodd" d="M518.071 699.731C453.076 665.66 378.014 667.788 316.883 699.682L235 557.855C242.708 554.415 254.162 549.506 270.816 542.518C347.2 510.468 431.981 504.325 512.188 525.03C542.854 532.946 571.934 544.676 598.961 559.626L518.071 699.731Z" fill="#293897"/>
<path id="Subtract_6" fill-rule="evenodd" clip-rule="evenodd" d="M824.731 194.418C886.735 233.67 922.424 299.74 925.367 368.627L1089.13 368.627C1088.26 360.231 1086.78 347.858 1084.51 329.941C1074.07 247.765 1037 171.271 978.968 112.163C956.78 89.5635 932.081 70.2439 905.621 54.3128L824.731 194.418Z" fill="#CFEBFF"/>
<path id="Subtract_7" fill-rule="evenodd" clip-rule="evenodd" d="M824.731 558.148C886.735 518.896 922.424 452.826 925.367 383.939L1089.13 383.939C1088.26 392.335 1086.78 404.708 1084.51 422.625C1074.07 504.801 1037 581.295 978.968 640.404C956.78 663.003 932.081 682.322 905.621 698.253L824.731 558.148Z" fill="#293897"/>
</g>
</svg>
