<svg width="43" height="47" viewBox="0 0 43 47" fill="none" xmlns="http://www.w3.org/2000/svg">
<path d="M17.7982 29.6637L11.9242 23.7897C11.5718 23.4373 11.1606 23.261 10.6907 23.261C10.2208 23.261 9.80958 23.4373 9.45714 23.7897C9.1047 24.1421 8.93827 24.5533 8.95785 25.0232C8.97743 25.4932 9.14386 25.9043 9.45714 26.2568L16.5647 33.4818C16.9171 33.8342 17.3283 34.0105 17.7982 34.0105C18.2681 34.0105 18.6793 33.8342 19.0318 33.4818L32.8357 19.6779C33.1881 19.3255 33.3643 18.9045 33.3643 18.415C33.3643 17.9255 33.1881 17.5045 32.8357 17.1521C32.4832 16.7996 32.0622 16.6234 31.5727 16.6234C31.0832 16.6234 30.6623 16.7996 30.3098 17.1521L17.7982 29.6637ZM3.5244 46.992C2.55519 46.992 1.72549 46.6469 1.03529 45.9567C0.345097 45.2665 0 44.4368 0 43.4676V8.2236C0 7.25439 0.345097 6.42469 1.03529 5.73449C1.72549 5.0443 2.55519 4.6992 3.5244 4.6992H15.5661C15.7619 3.3286 16.3885 2.20275 17.4458 1.32165C18.5031 0.44055 19.7366 0 21.1464 0C22.5562 0 23.7897 0.44055 24.847 1.32165C25.9043 2.20275 26.5309 3.3286 26.7267 4.6992H38.7684C39.7376 4.6992 40.5673 5.0443 41.2575 5.73449C41.9477 6.42469 42.2928 7.25439 42.2928 8.2236V43.4676C42.2928 44.4368 41.9477 45.2665 41.2575 45.9567C40.5673 46.6469 39.7376 46.992 38.7684 46.992H3.5244ZM3.5244 43.4676H38.7684V8.2236H3.5244V43.4676ZM21.1464 7.22502C21.6946 7.22502 22.1743 7.01943 22.5855 6.60825C22.9967 6.19707 23.2023 5.71736 23.2023 5.16912C23.2023 4.62088 22.9967 4.14117 22.5855 3.72999C22.1743 3.31881 21.6946 3.11322 21.1464 3.11322C20.5982 3.11322 20.1184 3.31881 19.7073 3.72999C19.2961 4.14117 19.0905 4.62088 19.0905 5.16912C19.0905 5.71736 19.2961 6.19707 19.7073 6.60825C20.1184 7.01943 20.5982 7.22502 21.1464 7.22502Z" fill="black"/>
</svg>
