<svg width="35" height="47" viewBox="0 0 35 47" fill="none" xmlns="http://www.w3.org/2000/svg">
<path d="M17.0346 46.992C15.9773 46.992 15.0472 46.7374 14.2444 46.2284C13.4417 45.7193 12.9228 45.0144 12.6878 44.1137H11.8655C10.9256 44.1137 10.1033 43.7613 9.3984 43.0564C8.69352 42.3515 8.34108 41.5292 8.34108 40.5893V32.1895C5.75652 30.5056 3.7202 28.3518 2.23212 25.7281C0.74404 23.1044 0 20.2066 0 17.0346C0 12.2962 1.65451 8.27255 4.96353 4.96353C8.27255 1.65451 12.2962 0 17.0346 0C21.773 0 25.7966 1.65451 29.1057 4.96353C32.4147 8.27255 34.0692 12.2962 34.0692 17.0346C34.0692 20.2066 33.3252 23.1044 31.8371 25.7281C30.349 28.3518 28.3127 30.5056 25.7281 32.1895V40.5893C25.7281 41.5292 25.3757 42.3515 24.6708 43.0564C23.9659 43.7613 23.1436 44.1137 22.2037 44.1137H21.3814C21.1464 45.0144 20.6275 45.7193 19.8247 46.2284C19.022 46.7374 18.0919 46.992 17.0346 46.992ZM11.8655 40.5893H22.2037V38.0048H11.8655V40.5893ZM11.8655 35.6552H22.2037V33.3056H11.8655V35.6552ZM11.3368 29.7812H15.6836V21.7338L11.1606 17.2108C10.9256 16.9759 10.8082 16.6822 10.8082 16.3297C10.8082 15.9773 10.9452 15.664 11.2193 15.3899C11.4935 15.1158 11.8014 14.9787 12.1431 14.9787C12.4849 14.9787 12.784 15.1158 13.0403 15.3899L17.0346 19.4429L21.0877 15.3899C21.3226 15.1549 21.6163 15.0374 21.9688 15.0374C22.3212 15.0374 22.6345 15.1745 22.9086 15.4486C23.1827 15.7227 23.3198 16.0164 23.3198 16.3297C23.3198 16.643 23.1827 16.9367 22.9086 17.2108L18.3856 21.7338V29.7812H22.7324C25.082 28.6847 26.9714 26.9812 28.4008 24.6708C29.8301 22.3604 30.5448 19.815 30.5448 17.0346C30.5448 13.2361 29.2427 10.0347 26.6386 7.43061C24.0344 4.82647 20.8331 3.5244 17.0346 3.5244C13.2361 3.5244 10.0347 4.82647 7.43061 7.43061C4.82647 10.0347 3.5244 13.2361 3.5244 17.0346C3.5244 19.815 4.23907 22.3604 5.66841 24.6708C7.09775 26.9812 8.98722 28.6847 11.3368 29.7812Z" fill="white"/>
</svg>
