<svg width="38" height="47" viewBox="0 0 38 47" fill="none" xmlns="http://www.w3.org/2000/svg">
<path d="M18.8071 26.5505C19.3093 26.5505 19.7268 26.3816 20.0597 26.0438C20.3926 25.7061 20.559 25.2876 20.559 24.7883V15.8598C20.559 15.3605 20.3891 14.942 20.0494 14.6042C19.7097 14.2665 19.2887 14.0976 18.7865 14.0976C18.2843 14.0976 17.8667 14.2665 17.5339 14.6042C17.201 14.942 17.0346 15.3605 17.0346 15.8598V24.7883C17.0346 25.2876 17.2045 25.7061 17.5442 26.0438C17.8839 26.3816 18.3049 26.5505 18.8071 26.5505ZM18.7957 32.8944C19.3447 32.8944 19.8052 32.7087 20.1772 32.3374C20.5492 31.9661 20.7352 31.5059 20.7352 30.957C20.7352 30.4081 20.5496 29.9476 20.1782 29.5756C19.8069 29.2036 19.3468 29.0176 18.7979 29.0176C18.2489 29.0176 17.7884 29.2032 17.4164 29.5745C17.0444 29.9459 16.8584 30.406 16.8584 30.9549C16.8584 31.5039 17.044 31.9643 17.4153 32.3364C17.7867 32.7084 18.2468 32.8944 18.7957 32.8944ZM1.7622 39.9432C1.26291 39.9432 0.844387 39.7733 0.506632 39.4336C0.168877 39.0939 0 38.6729 0 38.1707C0 37.6685 0.168877 37.2509 0.506632 36.9181C0.844387 36.5852 1.26291 36.4188 1.7622 36.4188H4.93416V18.4444C4.93416 15.2332 5.90337 12.3256 7.84179 9.72147C9.78021 7.11733 12.3354 5.4824 15.5074 4.81668V3.11322C15.5074 2.21254 15.8258 1.4685 16.4628 0.8811C17.0997 0.2937 17.8731 0 18.783 0C19.6929 0 20.4709 0.2937 21.117 0.8811C21.7632 1.4685 22.0862 2.21254 22.0862 3.11322V4.81668C25.2582 5.4824 27.8232 7.11733 29.7812 9.72147C31.7392 12.3256 32.7182 15.2332 32.7182 18.4444V36.4188H35.8314C36.3307 36.4188 36.7492 36.5886 37.087 36.9284C37.4247 37.2681 37.5936 37.6891 37.5936 38.1913C37.5936 38.6935 37.4247 39.111 37.087 39.4439C36.7492 39.7768 36.3307 39.9432 35.8314 39.9432H1.7622ZM18.7968 46.992C17.5437 46.992 16.4472 46.5319 15.5074 45.6116C14.5675 44.6913 14.0976 43.5851 14.0976 42.2928H23.496C23.496 43.5851 23.0359 44.6913 22.1156 45.6116C21.1953 46.5319 20.0891 46.992 18.7968 46.992ZM8.45856 36.4188H29.1938V18.4444C29.1938 15.5074 28.1952 13.0305 26.198 11.0137C24.2009 8.99701 21.7436 7.98864 18.8262 7.98864C15.9087 7.98864 13.4515 8.99701 11.4543 11.0137C9.45714 13.0305 8.45856 15.5074 8.45856 18.4444V36.4188Z" fill="white"/>
</svg>
