<svg width="52" height="41" viewBox="0 0 52 41" fill="none" xmlns="http://www.w3.org/2000/svg">
<path d="M4.10663 40.3544C2.97444 40.3544 2.00695 39.9512 1.20417 39.145C0.40139 38.3387 0 37.3695 0 36.2373C0 35.1052 0.401272 34.1377 1.20382 33.3349C2.00636 32.5322 2.97113 32.1308 4.09811 32.1308C4.30304 32.1308 4.5034 32.1406 4.6992 32.1601C4.895 32.1797 5.14954 32.2287 5.46282 32.307L17.2108 20.559C17.1325 20.2457 17.0835 19.9912 17.064 19.7954C17.0444 19.5996 17.0346 19.3992 17.0346 19.1943C17.0346 18.0673 17.4377 17.1025 18.244 16.3C19.0502 15.4974 20.0194 15.0962 21.1516 15.0962C22.2838 15.0962 23.2512 15.5002 24.054 16.3082C24.8568 17.1162 25.2582 18.0876 25.2582 19.2223C25.2582 19.2911 25.1995 19.7366 25.082 20.559L31.5434 27.0204C31.8567 26.9421 32.1112 26.8931 32.307 26.8735C32.5028 26.854 32.6986 26.8442 32.8944 26.8442C33.0902 26.8442 33.286 26.854 33.4818 26.8735C33.6776 26.8931 33.9321 26.9421 34.2454 27.0204L43.6438 17.622C43.5655 17.3087 43.5165 17.0542 43.497 16.8584C43.4774 16.6626 43.4676 16.4622 43.4676 16.2573C43.4676 15.1303 43.8707 14.1655 44.677 13.363C45.4832 12.5604 46.4524 12.1592 47.5846 12.1592C48.7168 12.1592 49.6842 12.5623 50.487 13.3686C51.2898 14.1748 51.6912 15.144 51.6912 16.2762C51.6912 17.4084 51.2899 18.3758 50.4874 19.1786C49.6848 19.9814 48.7201 20.3828 47.5931 20.3828C47.3881 20.3828 47.1878 20.373 46.992 20.3534C46.7962 20.3338 46.5417 20.2849 46.2284 20.2066L36.83 29.605C36.9083 29.9182 36.9572 30.1728 36.9768 30.3686C36.9964 30.5644 37.0062 30.7647 37.0062 30.9697C37.0062 32.0966 36.6031 33.0614 35.7968 33.864C34.9906 34.6665 34.0214 35.0678 32.8892 35.0678C31.757 35.0678 30.7895 34.6665 29.9868 33.864C29.184 33.0614 28.7826 32.0966 28.7826 30.9697C28.7826 30.7647 28.7924 30.5644 28.812 30.3686C28.8315 30.1728 28.8805 29.9182 28.9588 29.605L22.4974 23.1436C22.1841 23.2219 21.9296 23.2708 21.7338 23.2904C21.538 23.31 21.3373 23.3198 21.1317 23.3198C21.0632 23.3198 20.6177 23.261 19.7954 23.1436L8.04738 34.8916C8.1257 35.2048 8.17465 35.4594 8.19423 35.6552C8.21381 35.851 8.2236 36.0513 8.2236 36.2563C8.2236 37.3832 7.82047 38.348 7.0142 39.1506C6.20797 39.9531 5.23878 40.3544 4.10663 40.3544ZM7.0488 14.3913L5.85914 11.8216L3.28944 10.6319L5.85914 9.44228L7.0488 6.87258L8.23846 9.44228L10.8082 10.6319L8.23846 11.8216L7.0488 14.3913ZM32.8944 11.3956L31.0901 7.5021L27.1966 5.69778L31.0901 3.89346L32.8944 0L34.6987 3.89346L38.5922 5.69778L34.6987 7.5021L32.8944 11.3956Z" fill="black"/>
</svg>
