<svg width="48" height="43" viewBox="0 0 48 43" fill="none" xmlns="http://www.w3.org/2000/svg">
<path d="M3.5244 42.2928C2.58456 42.2928 1.7622 41.9404 1.05732 41.2355C0.35244 40.5306 0 39.7082 0 38.7684V3.5244C0 2.58456 0.35244 1.7622 1.05732 1.05732C1.7622 0.35244 2.58456 0 3.5244 0H44.4074C45.3473 0 46.1696 0.35244 46.8745 1.05732C47.5794 1.7622 47.9318 2.58456 47.9318 3.5244V38.7684C47.9318 39.7082 47.5794 40.5306 46.8745 41.2355C46.1696 41.9404 45.3473 42.2928 44.4074 42.2928H3.5244ZM3.5244 38.7684H44.4074V3.5244H3.5244V38.7684ZM16.9171 32.8944C17.5828 32.8944 18.1409 32.6692 18.5912 32.2189C19.0415 31.7685 19.2667 31.2105 19.2667 30.5448C19.2667 29.8791 19.0415 29.321 18.5912 28.8707C18.1409 28.4204 17.5828 28.1952 16.9171 28.1952H9.86832C9.2026 28.1952 8.64457 28.4204 8.19423 28.8707C7.74389 29.321 7.51872 29.8791 7.51872 30.5448C7.51872 31.2105 7.74389 31.7685 8.19423 32.2189C8.64457 32.6692 9.2026 32.8944 9.86832 32.8944H16.9171ZM29.9574 21.5576L28.2539 19.8541C27.784 19.3842 27.2358 19.159 26.6092 19.1786C25.9827 19.1982 25.4344 19.4429 24.9645 19.9129C24.5337 20.3828 24.3086 20.931 24.289 21.5576C24.2694 22.1841 24.4946 22.7324 24.9645 23.2023L28.7239 26.9617C29.0763 27.3141 29.4875 27.4903 29.9574 27.4903C30.4273 27.4903 30.8385 27.3141 31.1909 26.9617L39.9432 18.2094C40.4131 17.7395 40.6481 17.1912 40.6481 16.5647C40.6481 15.9381 40.4131 15.3899 39.9432 14.92C39.4733 14.45 38.9152 14.2151 38.2691 14.2151C37.623 14.2151 37.0649 14.45 36.595 14.92L29.9574 21.5576ZM16.9171 23.496C17.5828 23.496 18.1409 23.2708 18.5912 22.8205C19.0415 22.3701 19.2667 21.8121 19.2667 21.1464C19.2667 20.4807 19.0415 19.9226 18.5912 19.4723C18.1409 19.022 17.5828 18.7968 16.9171 18.7968H9.86832C9.2026 18.7968 8.64457 19.022 8.19423 19.4723C7.74389 19.9226 7.51872 20.4807 7.51872 21.1464C7.51872 21.8121 7.74389 22.3701 8.19423 22.8205C8.64457 23.2708 9.2026 23.496 9.86832 23.496H16.9171ZM16.9171 14.0976C17.5828 14.0976 18.1409 13.8724 18.5912 13.4221C19.0415 12.9717 19.2667 12.4137 19.2667 11.748C19.2667 11.0823 19.0415 10.5242 18.5912 10.0739C18.1409 9.62357 17.5828 9.3984 16.9171 9.3984H9.86832C9.2026 9.3984 8.64457 9.62357 8.19423 10.0739C7.74389 10.5242 7.51872 11.0823 7.51872 11.748C7.51872 12.4137 7.74389 12.9717 8.19423 13.4221C8.64457 13.8724 9.2026 14.0976 9.86832 14.0976H16.9171Z" fill="black"/>
</svg>
