<svg width="43" height="44" viewBox="0 0 43 44" fill="none" xmlns="http://www.w3.org/2000/svg">
<path d="M5.52156 43.3639C4.73836 43.3639 4.08243 43.0996 3.55377 42.5709C3.02511 42.0423 2.76078 41.3863 2.76078 40.6031C2.76078 39.8199 3.02511 39.164 3.55377 38.6354C4.08243 38.1067 4.73836 37.8424 5.52156 37.8424H10.2208L3.99432 16.5785C2.7412 15.9911 1.7622 15.1981 1.05732 14.1995C0.35244 13.2009 0 11.8793 0 10.2346C0 8.39406 0.67551 6.79829 2.02653 5.44727C3.37755 4.09625 4.97332 3.42074 6.81384 3.42074C8.53688 3.42074 9.96622 3.88087 11.1019 4.80113C12.2375 5.72139 13.0011 6.94514 13.3927 8.47238H21.9688V5.00672C21.9688 4.5368 22.145 4.12562 22.4974 3.77318C22.8499 3.42074 23.261 3.24452 23.731 3.24452C24.1617 3.24452 24.5239 3.41095 24.8176 3.74381C25.1113 4.07667 25.2582 4.45848 25.2582 4.88924L29.6637 0.659961C29.977 0.346681 30.3784 0.141091 30.8679 0.0431912C31.3574 -0.0547088 31.8567 0.0138212 32.3657 0.248781L41.6467 4.71302C41.9991 4.90882 42.2438 5.18294 42.3809 5.53538C42.518 5.88782 42.4886 6.25984 42.2928 6.65144C42.097 7.04304 41.8131 7.278 41.4411 7.35632C41.069 7.43464 40.7068 7.3759 40.3544 7.1801L31.2497 2.7746L25.4932 8.58986V11.6443L31.2497 17.6946L40.3544 13.2303C40.746 13.0345 41.118 12.9856 41.4704 13.0835C41.8229 13.1814 42.097 13.4261 42.2928 13.8177C42.4886 14.2093 42.518 14.6009 42.3809 14.9925C42.2438 15.3841 41.9795 15.6778 41.5879 15.8736L32.6007 20.1029C32.0525 20.377 31.5238 20.5043 31.0147 20.4847C30.5056 20.4651 30.0553 20.2595 29.6637 19.8679L25.2582 15.6387C25.2582 16.1869 25.1113 16.5981 24.8176 16.8722C24.5239 17.1463 24.1617 17.2834 23.731 17.2834C23.261 17.2834 22.8499 17.1072 22.4974 16.7547C22.145 16.4023 21.9688 15.9911 21.9688 15.5212V11.9968H13.2752C13.2752 12.4667 13.148 12.9464 12.8934 13.4359C12.6389 13.9254 12.3354 14.3268 11.983 14.6401L24.0247 37.8424H30.5448C31.328 37.8424 31.9839 38.1067 32.5126 38.6354C33.0412 39.164 33.3056 39.8199 33.3056 40.6031C33.3056 41.3863 33.0412 42.0423 32.5126 42.5709C31.9839 43.0996 31.328 43.3639 30.5448 43.3639H5.52156ZM6.81384 13.524C7.75368 13.524 8.53688 13.2107 9.16344 12.5842C9.79 11.9576 10.1033 11.1744 10.1033 10.2346C10.1033 9.29474 9.79 8.51154 9.16344 7.88498C8.53688 7.25842 7.75368 6.94514 6.81384 6.94514C5.874 6.94514 5.0908 7.25842 4.46424 7.88498C3.83768 8.51154 3.5244 9.29474 3.5244 10.2346C3.5244 11.1744 3.83768 11.9576 4.46424 12.5842C5.0908 13.2107 5.874 13.524 6.81384 13.524ZM14.0976 37.8424H20.0891L8.98722 16.2848C8.86974 16.3631 8.67394 16.4414 8.39982 16.5198C8.1257 16.5981 7.91032 16.6568 7.75368 16.696L14.0976 37.8424Z" fill="white"/>
</svg>
