<svg width="43" height="49" viewBox="0 0 43 49" fill="none" xmlns="http://www.w3.org/2000/svg">
<path d="M20.9718 34.1867C21.5973 34.1867 22.1254 33.9707 22.5562 33.5389C22.9869 33.107 23.2023 32.5784 23.2023 31.9529C23.2023 31.3274 22.9864 30.7993 22.5545 30.3686C22.1227 29.9378 21.594 29.7224 20.9685 29.7224C20.3431 29.7224 19.815 29.9384 19.3842 30.3702C18.9534 30.8021 18.7381 31.3307 18.7381 31.9562C18.7381 32.5817 18.954 33.1098 19.3858 33.5405C19.8177 33.9713 20.3464 34.1867 20.9718 34.1867ZM22.4974 23.6722C22.6149 23.0848 22.8792 22.4876 23.2904 21.8806C23.7016 21.2737 24.2988 20.5786 25.082 19.7954C26.3351 18.5423 27.2162 17.4164 27.7253 16.4178C28.2344 15.4192 28.4889 14.313 28.4889 13.099C28.4889 11.0627 27.8525 9.46693 26.5798 8.31171C25.3071 7.15649 23.5939 6.57888 21.4401 6.57888C19.6779 6.57888 18.043 6.9509 16.5353 7.69494C15.0276 8.43898 14.0584 9.35924 13.6277 10.4557C13.4319 10.8865 13.3927 11.3074 13.5102 11.7186C13.6277 12.1298 13.9018 12.4333 14.3326 12.6291C14.7633 12.8249 15.2039 12.8151 15.6542 12.5997C16.1045 12.3843 16.5059 12.1004 16.8584 11.748C17.4458 11.1606 18.1017 10.7103 18.8262 10.397C19.5506 10.0837 20.3436 9.92706 21.2051 9.92706C22.39 9.92706 23.3422 10.2305 24.0616 10.8375C24.781 11.4445 25.1407 12.2767 25.1407 13.334C25.1407 14.1172 24.9253 14.8808 24.4946 15.6248C24.0638 16.3689 23.3589 17.1912 22.3799 18.0919C21.2835 19.1492 20.4513 20.1576 19.8835 21.117C19.3157 22.0764 19.0318 22.9478 19.0318 23.731C19.0318 24.2147 19.1859 24.6293 19.4943 24.9748C19.8027 25.3204 20.1772 25.4932 20.6177 25.4932C21.105 25.4932 21.514 25.3184 21.8448 24.969C22.1754 24.6195 22.393 24.1872 22.4974 23.6722ZM19.9129 48.108L14.0976 42.2928H3.5244C2.58456 42.2928 1.7622 41.9306 1.05732 41.2061C0.35244 40.4816 0 39.6691 0 38.7684V3.5244C0 2.58456 0.35244 1.7622 1.05732 1.05732C1.7622 0.35244 2.58456 0 3.5244 0H38.7684C39.6691 0 40.4816 0.35244 41.2061 1.05732C41.9306 1.7622 42.2928 2.58456 42.2928 3.5244V38.7684C42.2928 39.6691 41.9306 40.4816 41.2061 41.2061C40.4816 41.9306 39.6691 42.2928 38.7684 42.2928H28.1952L22.3799 48.108C22.0275 48.4605 21.6163 48.6367 21.1464 48.6367C20.6765 48.6367 20.2653 48.4605 19.9129 48.108ZM3.5244 38.7684H15.5074L21.1464 44.4074L26.7854 38.7684H38.7684V3.5244H3.5244V38.7684Z" fill="black"/>
</svg>
